/* XPM */
static char *e3148ada914d45b2d913ce2620f73453Wne5YKujNIKGxfcq[] = {
/* columns rows colors chars-per-pixel */
"40 40 118 2 ",
"   c #1C152B",
".  c #241D33",
"X  c #24212E",
"o  c #2A272F",
"O  c #2C292F",
"+  c #272432",
"@  c #292434",
"#  c #2D2A33",
"$  c #2C263C",
"%  c #302D34",
"&  c #312C3D",
"*  c #323232",
"=  c #36333A",
"-  c #39373C",
";  c #3C3B3D",
":  c #352E45",
">  c #362B4F",
",  c #363042",
"<  c #393343",
"1  c #3B3548",
"2  c #3F394C",
"3  c #3B3057",
"4  c #413B4F",
"5  c #433D53",
"6  c gray25",
"7  c #46434B",
"8  c #48464B",
"9  c #4C4A4F",
"0  c #464054",
"q  c #494456",
"w  c #504E51",
"e  c #524D5C",
"r  c #575757",
"t  c #534E64",
"y  c #575163",
"u  c #5E5A67",
"i  c #5D576E",
"p  c #5F5970",
"a  c #635F6F",
"s  c #635E73",
"d  c #666173",
"f  c #6B647C",
"g  c #6D687F",
"h  c #63518E",
"j  c #6A549F",
"k  c #726D83",
"l  c #767183",
"z  c #7E7B81",
"x  c #7B768C",
"c  c #7F7B8B",
"v  c #716294",
"b  c #827F8A",
"n  c #827E91",
"m  c #85828B",
"M  c #858097",
"N  c #8A8692",
"B  c #8D8A96",
"V  c #878298",
"C  c #89849B",
"Z  c #8E899F",
"A  c #918B9F",
"S  c #97949E",
"D  c #928EA2",
"F  c #9A95A7",
"G  c #9C99A4",
"H  c #9D99AC",
"J  c #A19EA4",
"K  c #A09DAB",
"L  c #A39FB0",
"P  c #A3A1A5",
"I  c #A7A3B4",
"U  c #A9A7B3",
"Y  c #ADABB5",
"T  c #ABA7B8",
"R  c #ADA9B9",
"E  c #B2AEBD",
"W  c #B5B3B4",
"Q  c #B4B1BE",
"!  c #BFBEBE",
"~  c #AB9AD5",
"^  c #B5B2C0",
"/  c #B8B6C2",
"(  c #BDBBC5",
")  c #B9B4C9",
"_  c #BFBCC8",
"`  c #AF91F6",
"'  c #B4A2E0",
"]  c #C1BFC7",
"[  c #C1BFC9",
"{  c #C0B6D8",
"}  c #C6C5C5",
"|  c #C4C3CB",
" . c #C8C7CD",
".. c #CBCACF",
"X. c #D0CFCD",
"o. c #D1D1CE",
"O. c #CAC7D2",
"+. c #CDCCD1",
"@. c #D0CCD9",
"#. c #D6D6D7",
"$. c #DBDBD5",
"%. c #DDDDDA",
"&. c #E0DFDD",
"*. c #E0E1DD",
"=. c #DDDAE1",
"-. c #E5E6E0",
";. c #E7E8E2",
":. c #EDEDE3",
">. c #EAEBE4",
",. c #EEEEE4",
"<. c #EFF0E4",
"1. c #F1F2E8",
"2. c #F5F5EB",
"3. c #F6F7EC",
"4. c #F7F8EC",
"5. c #FAFBEE",
"6. c #FBFCEF",
"7. c #FEFFF1",
/* pixels */
"6 6 6 6 6 6 * * * * * * * * = d G %.>.>.7.7.>.#.N t # * * * 6 6 6 6 6 6 6 6 6 6 ",
"6 6 6 6 6 * * * * * * * * O B ( [ | >.7.7.7.%.| | ( u r r * * 6 6 6 6 6 6 6 6 6 ",
"6 6 6 6 6 * * * * * * * # g 1.5.$.$.1.3.7.,.7.,.$.*.&.4 w * * 6 6 6 6 6 6 6 6 6 ",
"6 6 6 6 6 * * * r r r 7 g  .5.G g g } 7.7.7.7.B g x $.E e r * * * 6 6 6 6 6 6 6 ",
"* * * * * * r r 6 6 6 # F 6.J g g g k $.7.7.l g g g k 2.f ; r * * * 6 6 6 6 * * ",
"* * * * * * * * * * * s +.<.B t t t i W 7.*.g t t t s o.| $ 6 * * * * * * * * * ",
"r r r r * * * * * * + F 2.X.0       . p 7.Y :       $ l #.n % * * * * * * * * r ",
"r r r r * * * * * * . ] 5.W             7.z           @ %.R + * * * * * * * * r ",
"6 6 6 * * * * * r 8 y  .5.W             7.z           @ >.^ 0 # * r r r r r r 6 ",
"6 * * * * r r r 6 @ T #.7.P             7.z           @ %.#.c o * * * 6 6 6 6 6 ",
"* * * * r 6 6 6 6 @ T #.7.#.a       . K 7.%.&       @ 6.#.#.B 7 r r * * 6 6 6 6 ",
"* * * r 6 6 6 6 ; e T #.7.#.| a     S 2.7.7.%.q   < ! 6.#.#.W 2 6 6 r * * * 6 6 ",
"* * * r 6 6 6 6 = l T #.7.#.#.R U $.5.7.7.7.7.:.} } 1.6.#.#. .q 6 6 r * * * 6 6 ",
"r * * r 6 6 6 6 = l T #.7.#.#.T T 5.7.7.7.7.7.7.%.#.<.6.#.#. .q 6 6 6 r * * * * ",
"r * * * 6 # # # = l R -.7.#.#.T T 5.7.7.#.z 7.7.%.#.<.6.#.#...n # # # = * * * * ",
"r * * * X <.<.<.4 I R >.7.#.#.T T 5.7.*.W   7.7.%.#.<.6.#.#.#./ , <.<.J O * r 6 ",
"r * * 8 W 7.7.7.7.#. .7.7.#.#.T T 5.7.*.( y 7.3.%.#.;.7.>.#.#.+.7.7.7.7.e r 6 6 ",
"r * * 2 ,.7.7.7.7.7.7.7.7.#.#.T T 5.7.#./ / #.3.%.#.#.7.4.1.2.7.7.7.7.7.e r 6 6 ",
"* * * 2 #.7.7.7.7.7.7.7.7.#.#.T T 5.7.*.#.+.7.7.%.#.#.7.7.7.7.7.7.7.7.<.q 6 6 6 ",
"* * * 1 +.#.<.<.7.7.7.7.7.#.#.T Q 5.7.*._ +.7.7.%.#.#.7.7.7.7.7.7.3.<.=.5 * 6 6 ",
"* r r 1 [ | #.#.*.*.*.7.7.#.#.T Q 5.7.*._ +.7.7.%.#.#.7.7.7.*.*.*.%.#.A < 6 6 r ",
"* 6 6 > ~ ) _ _ ( _ #.-.7.#./ T Q 5.7.*._ +.7.7.%.#.#.#.6.#.#.#.#.@.` j % * 6 r ",
"* 6 6 - v ~  ./ E  . .+.5.#.| T Q 5.7.*._ +.7.7.%..._ #.>.+.+.#.#.' _ X * * 6 r ",
"* 6 6 - b #.#.Q R  .#.#.5.#.| T Q 5.7.*.+.+.7.7.%...R #.>.#._ [ | [ _ X * * * * ",
"* * * - m #.#.Q T | #.#.5.#.| T Q 5.7.*.#.+.7.7.%...T #.>.%.+._ _ _ _ & r r * * ",
"r * * - m #.#.E Q #.#.#.5.#.+.T Q 5.7.*.#.+.7.7.%...T ^ %.#.+._ _ | _ @ 6 6 r * ",
"r * * % m #.+.R Q #.#.#.#.#.#.T Q 5.7.*.#.#.7.7.%...T R #.#.+._ _  ._ @ 6 6 6 r ",
"r * * % m #. .R Q #.#.#.#.#.#.T Q _ 7.*.#.#.7.7.%.#.E R  .#.+._ _  ._ @ 6 6 6 r ",
"6 r r # m #.| T Q #.#. .#.#.#.T Q _ 7.*.#.#.-.7.%.#.E T | #.+._ _  ._ @ 6 6 6 6 ",
"6 6 6 9 m #.| T Q #.#. .#.#.#.T Q _ 7.*.#.#.#.7.%.#.( T ] #.+._ [ #.#.X 6 6 6 6 ",
"6 6 6 - c #.| T  .#.#.] #.#.#.D F ( +.#.#.#.#.2.%.#.( T ] #.#.| [ #.#.q # * 6 6 ",
"6 6 6 - l #.| T #.#.#.] #.#.K g g c n n K K | >.%.#.( T ] #.#.#.[ #.#.l 8 r * 6 ",
"6 6 6 - l #.| T #.#.#.] +.#.Z g g g g g Z Z Z Y #.#.( T ] #.#.#.| #.#.l 8 r * 6 ",
"6 6 6 ; e #.| T #.#.#.] T #.Y g g g g g Z Z Z Y #.#.( T ] #.#.#.#.#.#.N = 6 r * ",
"* * * * X Q / T #.#.#.] T  .#.g g g g g Z Z Z | #.#.( T ] #.#.#.#.#.#.( 1 * * r ",
"r r r r = T ^ T #.#.#.] T H Z g g g g k Z x g #.#.#.( T _ #.#.#.#.#.#.| 2 * r 6 ",
"6 6 6 6 # T R T #.#.#.] H Z Z g g g g M Z x g Q #.#.( T Q #.#.#.#.#.#.| 2 r 6 6 ",
"6 6 6 6 # T T / #.#.#.] D Z Z g g g g M Z x g G #.#.( T Q #.#.#.#.#.#.+.5 r 6 6 ",
"6 6 6 - f T T +.#.#.#.I Z Z Z k g g g M Z x g L #.#.( T E #.#.#.#.#.#.O.5 6 6 6 ",
"6 6 6 - h T T +.#.#.#.Z Z Z Z C g g g M Z V g Z ( #.( T T | #.#.#.#.#.{ 3 6 6 6 "
};
