/* XPM */
static char *a3813868f62544b48b711d9c18b77cb5[] = {
/* columns rows colors chars-per-pixel */
"40 40 19 1 ",
"  c #131326",
". c #313131",
"X c #353535",
"o c #373759",
"O c gray25",
"+ c gray34",
"@ c #5F5F7B",
"# c gray38",
"$ c gray46",
"% c #990030",
"& c #6D6DBF",
"* c #7C7CFF",
"= c #828299",
"- c gray62",
"; c gray64",
": c #B4B4B4",
"> c gray74",
", c #E5E5CE",
"< c #FFFFF2",
/* pixels */
"%%%%%%%%%%%%%%%%%%%%%%%%%%%%%%%%%%%%%%%%",
"%%%%%%%%%%%%%%%%%%%%%%%%%%%%%%%%%%%%%%%%",
"%%%%%%%%%%%%%%%%%%%%%%%%%%%%%%%%%%%%%%%%",
"%O%%%%%%%%%%%+%%%%%%%%%O%%%%%%%%%%%%%%%%",
"%X%%%%%%%%%%OO%%%.%%%%XX%%%%%%%%XX%%%XX%",
"%.%%..X%%%%OOO%%..%%%%..%%%%%%%%XX%%X..%",
"%+++X:.%%%.XOO%%.+%%%+..%%%%%%%%..%%...%",
"%OXX...+%%..XX.++O%%%O++%%%XX%%%++%%+++%",
"%OXX.:.+%%..XX.++O%%OO++%%%XX%%.++%%+++O",
"%X...++OOO+...+OOO:OOOOO+......:..XOOOOO",
"%...,<<<OOO+...OOOOOOOOOO.++++++++.XOOOO",
"%. ,,<<<< OO++.XXX:OOOOOO.+OOOO:OO+.XOOO",
"%.@o;<<<<,OOOO.....XOOOOO..++OO ,<<<<XXX",
"%.@o,  ; ;OOOO.. ,<<<<OOO..++O;,,<<<<,XX",
"%.@o,o, o,OOOO ,,,<<<<<,O..++@o@<<<,<,,.",
"%X&@@,<,,<OOO @;,,,<<<,,,.+..@oo   ,   O",
"+.+ @@<<;OOOO@oo@<<<<<<,,.+..@o,<;, ,<,O",
"X.O&;o;@,OOOX@oo;   ,    +O++ @o,,,,<<<O",
"X.OO @,,,OOOX@oo,o o , o,+O++.*@o=<<,@OO",
"..OO.XXOOOOO.@o@<<,;oo,,,OOOO.O@;o;@;@OO",
".+O%O..XXXXX..@oo@,,<<,;;OOOO.XO*@,,, O+",
".OOOO++.......&o@o=<<<,@OOOOO..X..XX%OO+",
".OO%OOO++.OOOOO@@o=;;;= OOOOO...OO...XXX",
".OOOOOO++.OOOOO &;;,,,, OOOOO...OO...XXX",
"..O%OOOOO.XOOOOXX &,,,,OOOOXX.+...++%...",
"+.O%OOOOO..XXXX.....+OOOXXX...O+..OO%++.",
"+.X%OOOOOOX....++++%XXXX...+++OO..OOOOO+",
"O+..XXOOOX.++++OO++......++OOOOO..OOOOOO",
"O+..XXOOOX.++++OO++......++OOOOO..OOOOOO",
"OO++..XXX..OOOOOOOO%++++.+OOOOOO....OOOO",
"OOOOOOO..+..OOOOOOOOOOXX.OOOOOOXOOOO.OOO",
"OO------OO+.XXXOOOOOOXO-->>--OXO------.O",
"O->>>->---OO...XXXX%XO$$$####OO$------#O",
"$$$$$#####OO...XXXXXXO$$-----$$$$$#####O",
"--########OOOO...OOO.O$-->>-----#######O",
"##$$######OOXXX.O>>>---$$$$--###$######O",
"##$$##---#OX....O$$$$##$$$$#####--------",
"-#$->>-----...OO.$$###$->->>---#$##--###",
"-#$$##--###O..OO.$$$##$$----####$$######",
"##$$$######OOOOO.$$$##$$$$$#####$$######"
};
