/* XPM */
static char *_8677e46e18b4356eb6d65b4d8fbf4f9QlpsFn46ycMX8Iba[] = {
/* columns rows colors chars-per-pixel */
"40 40 175 2 ",
"   c #1C152B",
".  c #1E192B",
"X  c #211B2E",
"o  c #231C33",
"O  c #271C3E",
"+  c #281F3C",
"@  c #24212E",
"#  c #29262F",
"$  c #2B2A2F",
"%  c #292633",
"&  c #2E2D31",
"*  c #2B233B",
"=  c #312D37",
"-  c #332F3E",
";  c #323232",
":  c #34323A",
">  c #38353B",
",  c #3C3A3D",
"<  c #291B43",
"1  c #301D52",
"2  c #2C2242",
"3  c #362E44",
"4  c #312749",
"5  c #362D4A",
"6  c #363040",
"7  c #383243",
"8  c #38304A",
"9  c #3D3848",
"0  c #362B51",
"q  c #392E53",
"w  c #3D315A",
"e  c #3B2465",
"r  c #423F48",
"t  c #41365E",
"y  c #443A5C",
"u  c #483F5F",
"i  c #40296B",
"p  c #453A61",
"a  c #493F63",
"s  c #43326A",
"d  c gray25",
"f  c #44414A",
"g  c #454150",
"h  c #4D4856",
"j  c #484059",
"k  c #504E51",
"l  c #575757",
"z  c #57555A",
"x  c #5A565D",
"c  c #4A4066",
"v  c #4E4269",
"b  c #544B6D",
"n  c #5F5B66",
"m  c #574D71",
"M  c #584F72",
"N  c #5C5375",
"B  c #5F5578",
"V  c #605C66",
"C  c #625B75",
"Z  c #60567B",
"A  c #62597B",
"S  c #666467",
"D  c #66636C",
"F  c #6E6C6D",
"G  c #6E6C74",
"H  c #6D677B",
"J  c #69617F",
"K  c #706D73",
"L  c #706B7D",
"P  c #787777",
"I  c #73707C",
"U  c #79767C",
"Y  c #7F7E7B",
"T  c #4F2C87",
"R  c #4E2A8A",
"E  c #512C8E",
"W  c #5D3E93",
"Q  c #5F31AB",
"!  c #6734BA",
"~  c #6C5E8F",
"^  c #654C9D",
"/  c #675790",
"(  c #6B549B",
")  c #6D6584",
"_  c #6F6883",
"`  c #746D86",
"'  c #766F8A",
"]  c #7B7584",
"[  c #7D7B80",
"{  c #7A7389",
"}  c #7F7A8C",
"|  c #7D7593",
" . c #6949AD",
".. c #6D55A5",
"X. c #7151AF",
"o. c #744FB9",
"O. c #7253B6",
"+. c #7453BC",
"@. c #7D64B5",
"#. c #6D38C4",
"$. c #7D3CE4",
"%. c #7A4DCC",
"&. c #7750C7",
"*. c #7B4ED2",
"=. c #807E84",
"-. c #827D8D",
";. c #847E92",
":. c #837C98",
">. c #8E7FAE",
",. c #846EB4",
"<. c #8874B2",
"1. c #8645F3",
"2. c #8844F7",
"3. c #8A43FC",
"4. c #8B8B85",
"5. c #86848B",
"6. c #90908A",
"7. c #98988F",
"8. c #868291",
"9. c #8A8693",
"0. c #8E8A95",
"q. c #868099",
"w. c #8E8A9B",
"e. c #918E95",
"r. c #918C9D",
"t. c #929193",
"y. c #96949C",
"u. c #9A979E",
"i. c #9C9B9E",
"p. c #A1A297",
"a. c #9084AB",
"s. c #9E9DA0",
"d. c #A19CAA",
"f. c #A2A2A2",
"g. c #A9A9A6",
"h. c #A7A4AD",
"j. c #ADADAA",
"k. c #AEB0A3",
"l. c #B4B5A7",
"z. c #B3B4AD",
"x. c #ADA9B4",
"c. c #B6B6B4",
"v. c #BABCB2",
"b. c #BEBFBB",
"n. c #BFC2AF",
"m. c #BEC0B4",
"M. c #C2C5B6",
"N. c #CACDB7",
"B. c #C4C4BD",
"V. c #C6C9B9",
"C. c #C9CCBB",
"Z. c #CED1BD",
"A. c #D0D4BC",
"S. c #C5C6C0",
"D. c #CFD1C5",
"F. c #D1D5C1",
"G. c #D5D9C1",
"H. c #DADEC6",
"J. c #D2D3CA",
"K. c #DCE0C7",
"L. c #DEE3C9",
"P. c #E1E6CB",
"I. c #E3E8CC",
"U. c #E6EAD1",
"Y. c #EAEED6",
"T. c #E5E5DB",
"R. c #E5E6DA",
"E. c #EDF1DA",
"W. c #F0F3DE",
"Q. c #EEEEE5",
"!. c #F3F6E3",
"~. c #F7F9E8",
"^. c #FAFCEC",
"/. c #FBFDED",
"(. c #FEFFF1",
/* pixels */
"d d d d d d ; ; & - p.I.I.I.I.U.(.(.(.(.(.(.(.(.(.(.(.(.(.(.=.7 , , d d d d d d ",
"d d d d d ; # D p.I.I.I.I.I.I.^.(.(.(.(.(.(.(.(.(.(.(.(.(.(.(.(.g.U > d d d d d ",
"d d d d , & I H.I.I.I.I.I.I.I.^.(.(.(.(.(.(.(.(.(.(.(.(.(.(.(.(.(.!.F , d d d d ",
"d d d d : U f.H.I.I.I.I.I.I.I.^.(.(.(.(.(.(.(.(.(.(.(.(.(.(.(.(.(.!.I.4.= d d d ",
"; ; ; . f.f.f.H.I.I.I.I.I.I.I.I.(.(.(.(.(.(.(.(.(.(.(.(.(.(.(.(.^.I.I.I.N.% ; ; ",
"; ; @ t.f.f.f.M.I.I.I.I.I.I.I.I.!.(.(.(.(.(.(.(.(.(.(.(.(.(.(.(.W.I.I.I.G.z & ; ",
"l r G f.f.f.f.f.j.I.I.I.I.I.I.I.I.E.(.(.(.(.(.(.(.(.(.(.(.(.(.U.I.I.I.I.I.7.# l ",
"l 9 H A A A A 8.0.z.H.I.I.I.I.I.I.I.I.!.!.~.(.(.(.(.(.!.!.E.I.I.I.I.I.I.I.I.S k ",
", 5 A A A A A A A } g.g.I.I.I.I.I.I.I.I.I.I.U.U.U.U.U.I.I.I.I.I.I.I.I.I.I.I.S , ",
", 5 A A Z v w b m A } 0.j.Y.Y.Y.Y.Y.Y.Y.E.(.(.(.^.U.I.Y.(.(.(.E.Y.U.I.I.I.I.S , ",
"; 5 A A N w w w t A A A j.(.(.(.(.(.(.(.(.(.(.(.(.!.I.^.(.(.(.(.(.^.Y.I.I.I.S , ",
"o A A A w w w w t M N A J g.V.l.=.=.=.=.=.=.=.=.G.I.I.I.!.T.T.T.T.T.T.!.I.A.x , ",
"o A A A w w w w w w p B _ V.K X                 x I.I.I.z g g g g g g g.I.7.: d ",
"o A A t w w w w w w w A z.6.                    - I.I.-                 t.6.& ; ",
"o A A t w w w w w w C i.F.j                     - I.I.[                 * G # ; ",
"o A A t w w w w w C g.g.Z.w +                   g.L.H.P.*               o ] S , ",
"o A A b w w w w y 5.C.I.Z.w 4                 2 C.k.5.P l.              w ] S , ",
"O ..A A w w w w a v.I.I.Z.w w w q         * w p n.  G * M.t *       4 w a v.I.- ",
"< o.A A w w w w a v.I.I.H.{ w w w w w w y L -.H.    g o - e.w w w w w r.h.!.I.- ",
"< %.A A w w w w a v.I.I.I.E.;.w w C f.f.(.!.I.-         - I.] w w ;.(.(.^.I.I.- ",
"* W m L 8.8.y.f.J v.I.I.I.I.E.!.!.!.!.!.L.V.L w +       8 z.I.W.!.!.!.I.I.I.I.- ",
"& 5 c w t t p a A y.I.~.^.^.^.^.I.I.I.I.H.f.C w w q L y w ] I.I.I.I.I.I.I.I.I.- ",
"& i ( A A A A A A -.T.(.(.(.(.(.^.I.I.I.L.v.-.t t ] f.a w ] I.I.I.!.(.(.(.(.!.6 ",
"; 3 v A A A A A A m J Q.(.(.(.(.U.I.I.I.I.Y.B.e.e.f.J.u.0.c.Y.I.U.(.(.(.(.(.(.7 ",
"; $ s Z A A A A w w w w A s.v.v.F.I.I.I.I.I.E.S.b.D.!.E.b.J.Y.I.I.Y.T.T.T.T.D & ",
"l ; @ ^ A A A A w w v M A m p N { V.I.I.I.I.I.Y.Y.Y.I.Y.Y.U.I.I.I.F.g.f.f.[ f & ",
"l ; @ $.O.A A t 5 c A A N w w b A 0.L.I.I.I.I.I.I.I.I.I.I.I.I.I.f.f.f.y.  = d l ",
"l ; & e +.( A t o c A A N w w w A J v.I.I.Y.!.!.!.!.!.!.!.E.I.I.f.f.8.A X d d l ",
"d l l . 2.&.&.O p A A A N w w w N ) v.H.^.^.(.(.(.(.(.(.(.^.^.L.f.9.B o d d d d ",
"d d d f R 3.Q p A A A A N w w w p | y.} z.f.B.B.d.B.x.b.x.h.j.r.{ ` c o d d d d ",
"d d d d l     N A A A A N w w w p :.) u.s.w.f.f.q.f.w.s.s.w.w.:.N y 4 o ; ; d d ",
"d r d d ; l - N A A A A N w w w t ) b 8.u.;.f.f.' f.;.u.s.w.w.:.y u q = l l ; d ",
"d d d d ; l - N A A A A A b w w w 4     A A 9.q.A :.) | A ) :.A A A 5 , l l ; d ",
"d d d d ; d %  .+./ ' -.f.f.-.y w 0 V Y n n I -.A A A A A -.-.s.u.A 5 , d d l ; ",
"; ; ; ; ; ; ; o +.+.a.f.f.f.f.i.w C C.I.L.C.f.f.i.i.i.i.g.L.L.P.H.8.5 , ; ; ; l ",
"l l l l l ; ; # Q *.,.>.f.f.f.f.u.{ C.I.I.I.I.I.L.m.m.L.I.I.I.I.I.z.5 ; ; ; l d ",
"d d d d d l ; ; & R 2.&.@.f.f.f.u.{ C.I.I.I.I.I.I.I.I.I.I.I.I.I.I.V.h & l l d d ",
"d d d d d l ; ; ; $ T ! *.%.<.w.i.} u.H.I.I.I.I.I.I.I.I.I.I.I.I.I.C.h & l l d d ",
"d d d d d d l l l ; & & 1 E 1.+.@.J 9.j.I.I.I.I.I.I.I.I.I.I.I.I.K.=.= l d d d d ",
"d d d d ; d d d d d d d d : o ! #. .X.( ~ h.M.F.I.I.I.I.P.F.F.l.o # d d d d d d "
};
