/* XPM */
static char *c8d2aac11fd0491ccdaa490dfe4e8c57BbwY6rfc5YpRIdjx[] = {
/* columns rows colors chars-per-pixel */
"40 40 14 1 ",
"  c #131326",
". c #313131",
"X c #353535",
"o c #373759",
"O c gray25",
"+ c gray34",
"@ c #5F5F7B",
"# c #990030",
"$ c #6D6DBF",
"% c #7C7CFF",
"& c #828299",
"* c gray64",
"= c #E5E5CE",
"- c #FFFFF2",
/* pixels */
"OOOOOOXX.XXXXXO           ...XXOOOOOOOOO",
"OOOOOX....  ###=----------#-- .XOOOOOOOO",
"OOOOOX..+ ==#===----------#---  XOOOOOOO",
"OOOOOX *====#==------------#------OOOOOO",
"XXXXX.*====#===------------#------ OOOXX",
".... **====#===------------#------== X..",
"+++ ***==###====------------#----==== ..",
"OO *****=#=======------------#--======++",
"OO*@@@@**#=========----------#======== +",
"O @@@@@@##============-----==##======= O",
"X @@@@o@#@***========----===--##====== O",
". @@@oo##@@@*-------------=-----##==== O",
" @@@ooo#o@@@@*==********====-----#--== X",
" #@@ooo#oo@@@**         *====******===XX",
" @@oooo#ooo@*=           ==         *=..",
" @@oooooooo*=*           ==          *++",
" @@ooooooo**=o          *===         o O",
" @@ooooooo===o          *=*=*       oo O",
" $@@ooooo*===##oo     oo= * =o    ooo*= ",
" $@@ooooo*===#ooooooooo=  *  *oooo##o-= ",
" %@@ooooo*===#oooo**--=      =oooo-##== ",
". oo@@**@*===#=======*ooo   oo======#== ",
". oooooo@@=--#--=====*oooo*ooo======#== ",
". @@@@@@@@--##---=====*oo**ooo===---#-- ",
"..@@@@@@@@@##---======**#*-***===------ ",
"+. @@@@@ooo#@@@@*======-#-=---====**** +",
"+. $@@@@oo@#@@o@@*======#=========****OO",
"O+ %$@@o o@@@ooo@@=====#========***@ OOO",
"O++ $$@o o@@@ooo@@====-#------==**@@ OOO",
"OOO %%% @@@@@oooo@**==-#------=***o .OOO",
"OOOO % @@@@@@oooo&*@*@*#@*@*&@&&@@o +.OO",
"OOOO.+ @@@@@@oooo&@**&**&*&**&&#  o O+..",
"OOOO.O @@@@@@ooooo &*#**@*@**&&##@ OOO++",
"OOOO.O $$@@@**oooo####@@@@@@@@@@#@ OOO++",
"......X $$******oo#=#=*******===#* OOX..",
"+++++.. %$*******##=#====**===###= OX.++",
"OOOOO+... %$$**###==#=========#=#= X.+OO",
"OOOOOO+++.%%$$*#*@*#==========#=#= .+OOO",
"OOOOOO+++...  %#$@*#=========##==*X.+OOO",
"OOOO.OOOOOOOOO %%$@@@*=======#==  .OOOOO"
};
