/* XPM */
static char *_e7f8adec4154175de95427453b3ea47YFrwnwH1svfdiru4[] = {
/* columns rows colors chars-per-pixel */
"40 40 199 2 ",
"   c #050403",
".  c #0A0504",
"X  c #0E0A07",
"o  c #0D0C0C",
"O  c #140502",
"+  c #150905",
"@  c #190A05",
"#  c #150B09",
"$  c #17110C",
"%  c #131212",
"&  c #1B1B1B",
"*  c #260B05",
"=  c #2C0902",
"-  c #3B0C02",
";  c #24120A",
":  c #37190C",
">  c #231A14",
",  c #3A1D10",
"<  c #232323",
"1  c #2C2C2C",
"2  c #3D2E21",
"3  c #353535",
"4  c #3B3B3B",
"5  c #471205",
"6  c #551203",
"7  c #671B05",
"8  c #691C08",
"9  c #731D06",
"0  c #761F09",
"q  c #452514",
"w  c #532C14",
"e  c #67230C",
"r  c #7F2F0F",
"t  c #68361A",
"y  c #493828",
"u  c #6C3A29",
"i  c #7A3C22",
"p  c #713F2D",
"a  c #7D401E",
"s  c #7D4829",
"d  c #6E4B34",
"f  c #7D4935",
"g  c #6E553B",
"h  c #424242",
"j  c #4B4B4B",
"k  c #535353",
"l  c #5A5A5A",
"z  c #767676",
"x  c #86280A",
"c  c #8A2C0D",
"v  c #9A2F0A",
"b  c #8D310E",
"n  c #9B330C",
"m  c #812E11",
"M  c #843F1F",
"N  c #973A14",
"B  c #A9390E",
"V  c #A03B14",
"C  c #AE3E11",
"Z  c #84401F",
"A  c #91431C",
"S  c #9A431A",
"D  c #A54316",
"F  c #AB4012",
"G  c #A0491D",
"H  c #AA491A",
"J  c #B34513",
"K  c #B64915",
"L  c #B94A18",
"P  c #B0521F",
"I  c #BC521B",
"U  c #854725",
"Y  c #984820",
"T  c #924E28",
"R  c #9C572D",
"E  c #8D5638",
"W  c #8C553B",
"Q  c #975933",
"!  c #92593D",
"~  c #A74F22",
"^  c #A85525",
"/  c #B95621",
"(  c #A15D32",
")  c #96613F",
"_  c #9A613D",
"`  c #BA662E",
"'  c #A46435",
"]  c #A8653A",
"[  c #B76C3C",
"{  c #BE733B",
"}  c #C6591E",
"|  c #D35E1F",
" . c #CC6F16",
".. c #D07C1D",
"X. c #C55E26",
"o. c #CC5D23",
"O. c #D15D21",
"+. c #CA6226",
"@. c #D46223",
"#. c #D96525",
"$. c #DA6927",
"%. c #D36529",
"&. c #DA6728",
"*. c #D46B2E",
"=. c #DD6B2A",
"-. c #D1712F",
";. c #C46D37",
":. c #D36F32",
">. c #D86E31",
",. c #C6763E",
"<. c #C7793E",
"1. c #D57234",
"2. c #D87134",
"3. c #D7763A",
"4. c #DC7C3D",
"5. c #E06F2C",
"6. c #E1712E",
"7. c #E27433",
"8. c #8D5E42",
"9. c #855948",
"0. c #8E6F4C",
"q. c #996343",
"w. c #986648",
"e. c #936B54",
"r. c #A16946",
"t. c #AB6D44",
"y. c #AB7449",
"u. c #B97146",
"i. c #B47653",
"p. c #C47B47",
"a. c #D37C42",
"s. c #D87A46",
"d. c #CD7E51",
"f. c #DA972D",
"g. c #D49A3F",
"h. c #E49E28",
"j. c #E6893E",
"k. c #E09835",
"l. c #E3A133",
"z. c #AA805A",
"x. c #B58457",
"c. c #AA8760",
"v. c #B38B63",
"b. c #BA926B",
"n. c #C48248",
"m. c #CA834D",
"M. c #D3864B",
"N. c #D88648",
"B. c #C28754",
"V. c #CE8D52",
"C. c #C98358",
"Z. c #CC8C59",
"A. c #D58D53",
"S. c #DB8D51",
"D. c #D79358",
"F. c #E38442",
"G. c #E88C45",
"H. c #E58E4B",
"J. c #E5924E",
"K. c #EB964D",
"L. c #E88F50",
"P. c #E69355",
"I. c #EA9553",
"U. c #EC9B56",
"Y. c #E29759",
"T. c #E69B5E",
"R. c #EB9B5C",
"E. c #F09E5A",
"W. c #EDA45C",
"Q. c #E4AA59",
"!. c #F2A25E",
"~. c #EFB857",
"^. c #F3BB53",
"/. c #C59366",
"(. c #CA9565",
"). c #CC9B6C",
"_. c #DA9C65",
"`. c #D49B68",
"'. c #E79B61",
"]. c #EB9E61",
"[. c #D7A067",
"{. c #CEA57A",
"}. c #E7A467",
"|. c #EDA362",
" X c #E9AC6C",
".X c #EEAC6D",
"XX c #F2A464",
"oX c #F1AA64",
"OX c #F3AB6B",
"+X c #EDBC6F",
"@X c #EDAB72",
"#X c #F1AD73",
"$X c #EEB073",
"%X c #F2B273",
"&X c #F4B278",
"*X c #F1B87A",
"=X c #EDBA82",
"-X c #F3C186",
";X c #EEC391",
/* pixels */
"h h h h h h 4 3 3 3 3 3 3 3 4 h h h 4 3 3 3 3 3 3 3 3 3 3 3 3 3 h h h h h h h h ",
"h h h h h 4 3 3 3 3 3 3 3 3 3 4 4 4 3 3 3 j k k k k k k k k j 3 4 4 h h h h h h ",
"j h h h h 4 3 3 j j j j j j 3     . . . . . X o X 4 j j j j j j 3 4 4 h h h h h ",
"4 4 4 4 4 3 4 h j j j j j j o 2 z.b.v.v.x.v.v.b.g o h h h h j j h 4 3 4 h h h h ",
"3 3 3 3 3 3 4 k 4 h h h h < X ).V.oXOXoXU.oXW.|.,.q < h h h h h k 4 3 3 4 h h h ",
"3 3 3 3 3 3 3 4 3 3 3 3 4 . g oXB.U.oXoX|.|.!.m.J.` + 3 h h h h h 4 3 3 3 3 3 3 ",
"k k k k 3 3 3 3 3 3 3 3 % >  XW.x.' t.r.r.r.t.Q j.G.a o h h h h h 4 3 3 3 3 3 3 ",
"j j j h 3 3 3 3 j j h <   c.W.}._ K.!.E.E.I.E.S.[ G.-., & 4 4 4 4 3 4 j j j j j ",
"h 4 4 3 3 4 4 4 k j j . y %X|.e.M.E.!.E.E.U.XX].] a.j.^ . 1 3 3 3 3 4 j j j k k ",
"4 4 3 3 3 j l l h h & $ [.oX/.t.E.U.XXE.U.E.OX.X|.Q H.4.e X 3 3 3 3 3 3 3 4 h h ",
"3 3 3 3 l j h h h 3   0.oX@X8.U.U.!.E.Y.D.|.#X#X@XZ.^ F./ * 1 l l l l l 3 3 4 h ",
"3 3 4 j j h h h h % y  XW.r.S.U.XX!.U.`.l._.#X#X@X@X( ;.*.A . 4 j j j j j 4 3 4 ",
"j 3 h l h h h h h o t <.{ ' XXU.P.A.A.(.h.Z._._.@X XT.M ^ N O 4 h h h h j j h 3 ",
"l 4 4 j h h h h h & q F.K.] XX!.M.~.~.^.^.+X+Xn.'.R.'.A +.b X h h h h h h j j 3 ",
"l 4 3 3 h h h h h 1 + N.W._ |.OX}.A.D.(.Q.p.M.m.P.F.{ S } e % h h h h h h h 4 3 ",
"l 4 3 3 3 4 h h h 3   u..Xw.Y.#X&X.X#X`.k.S.R.P.7.=.Q P I 5 & 4 h h h h h 4 3 3 ",
"l 4 4 j 3 4 h h h 4 . ) *Xz.m.&X&XR.|.).f.A.H.7.5.#.f I J * < 3 h h h h h 4 4 j ",
"j 3 4 j 3 4 h h h h o d -X{.' OXXXI.R.).f.a.6.=.=.=.p } V O 3 3 h h h h h 4 4 j ",
"3 3 4 h 3 4 4 4 h h & q =X;XU R.|.R.R.).g.+.$.=.$.3.i } c . j 3 h h h h 4 3 3 4 ",
"3 3 4 h 3 3 3 3 h h < ; D.OXs U.].R.]./...+.@.=.#.;.U I 8 % 4 3 h h h h 3 3 3 3 ",
"3 j j h h 3 3 3 3 3 1 . ,.!.E P.].'.R.m. .X.#.&.#.u.Y K 5 < 4 3 3 4 4 4 3 3 4 h ",
"3 h j h h j j j 3 3 3   R !.q.M.].R.F.X.S @.#.#.#.r.~ F = 1 4 3 3 4 4 3 3 3 3 4 ",
"3 4 h h h j j j h 3 3 o t U.y.p.R.L.6.5.#.@.&.#.| e./ n O 3 4 3 3 3 3 4 3 3 3 3 ",
"3 4 4 h h h h h k 4 3 & , I.B.] P.7.=.=.#.@.&.@.%.9.I x . 4 4 3 4 3 3 4 4 4 4 4 ",
"3 3 4 h h h h h h 3 3 < @ S._.T 4.=.$.=.@.@.#.%.s.u L 7 % 4 3 3 l h 3 3 l l l l ",
"k 4 4 h h h h h h 3 3 1 . p.$Xi $.=.#.&.@.@.%.#.d.e J 5 & 3 3 3 h j j 3 h j j j ",
"l 4 3 4 h h h h h 4 4 3   ' OXs @.&.#.#.@.#.O.O.i.r B = < h j j h j h 3 h h h h ",
"j j 4 3 4 4 4 h h 4 4 3 o i K.8.o.#.@.@.@.@.| @.w.N n @ 4 j j j h h 4 3 4 h h h ",
"h j j 3 3 3 4 h h 4 3 3 < w K.y./ @.| O.| O.%.%.9.F x # k j h h h h 4 3 4 4 4 h ",
"h h j k 3 3 3 4 4 3 3 3 1 ; H.V.G @.| | O.%.*.:.f J 7 & h h h h h h 4 3 3 3 3 h ",
"h h h j j 4 3 3 3 j j 3 1   a.R.A @.@.O.@.*.2.1.f C 5 < h h h h h 4 3 3 j j j 3 ",
"h h h h h j j j j j j j 3 . ] K.T @.O.O.>.*.1.a.i B = 1 h h h h 4 3 3 3 l j j j ",
"h h h h 3 j k k k j j j 3 o s K.Q O.o.*.>.2.2.C.m v @ 3 h h h 4 3 3 3 4 k j j k ",
"h h h h 3 4 h h h h h h h & w U.R o.%.2.>.:.3.i.b c X h h h 4 3 3 3 4 l h h h h ",
"3 3 3 3 3 3 3 3 h h h h h 1 : J.] X.1.1.1.1.1.q.V 9 % h h 4 3 3 3 j k h h h 4 3 ",
"j j j j j 4 3 3 4 4 4 h h 3 # N.{ Z ! ! E W E p B 6 & 4 4 3 3 3 j j j h h 4 4 3 ",
"j j j j j j 4 3 3 3 3 4 4 3 . { ^ H H D D D D N v - < 3 3 3 4 h j j h h 4 3 4 h ",
"h h h h h j j 4 4 3 3 3 3 3 o U D K K J J K J C c * 1 3 3 3 4 k h h h 4 3 4 h k ",
"h h h h h h j l l 4 3 3 3 3 & : 0 9 9 9 9 0 9 9 8 X 3 h h h h h h h 4 3 3 j k h ",
"k j h l l 4 h j j h h h h h 1 . o % o o o o % 1 3 < 3 3 h k z l k j j 3 4 h h h "
};
