/* XPM */
static char *ec79950026964bd99a3dfd296a15e93bQAZbpKn3za1L7Btk[] = {
/* columns rows colors chars-per-pixel */
"40 40 12 1 ",
"  c #1D1D1D",
". c gray14",
"X c #313131",
"o c #353535",
"O c #755317",
"+ c #755621",
"@ c gray25",
"# c gray34",
"$ c #BA8E41",
"% c #E8B151",
"& c #2F7FE0",
"* c #FAF5EB",
/* pixels */
"@@@@@@ooXooooo@@@@oXXXXXXXXXXoo@@@@@@@@@",
"@@@@@oXXXXXXXXooooXXX########XXo@@@@@@@@",
"@@@@@oXX######XXXXX##@@@@@@@@##Xo@@@@@@@",
"@@@@@oXX######XXXXX##@@@@@@@@##Xo@@@@@@@",
"oooooX##@@@@@@###oXooooo@@@@@@@#Xoo@@@oo",
"XXXXXXoooooo@@@oOOOOOXXXoo@@@@@@XoooooXX",
"####oXXXXXXXo@oXOOO%%##XXXo@@@@@XXXXXXXX",
"@@@oXXXX##XXXoX#%%%%%@@#XXXoooooX#######",
"@@@oXXXX##XXXoX#%*.*.@@#XXXoooooX#######",
"@ooXX###@@##XX#@%%%%%@@@##XXXXXXXXXo@@@@",
"oXXX#@@@@@@@#XX@%%%%%@@@@@X########Xo@@@",
"XXX#@@@@@@@@@#Xo%%%$$@@@@@X#@@@@@@@#Xo@@",
"#XX#@@@@@@@@@@X&&%%%&&&@@@XX#@@@@@@@#Xoo",
"#XX#@@@@@@@@@&&&&&%&&&&&@@XX#@@@@@@@#Xoo",
"#XXX@@@@@@@@@&&&&&&&&&&&@@XX#@@@@@@@@XXX",
"#ooXX@@@@@@@@%%&&&&&&&&%@@X#Xoo@@@@@XX##",
"#XX#X@@@@@@@@%%&&&&&&&&%ooX#XXX@@@@@X#@@",
"oXX@X@@@@@@@@%%&&&&&&&&%XX#@#XX@@@@@X@@@",
"oXX@X@@@@@@@@%%&&&&&&&&%XX#@#XX@@@@@X@@@",
"XXX@Xooo@@@@@%%&&&&&&&&%##@@@XX@@@@oXo@@",
"X##@@XXXooooo%%&&&&&&&&%@@@@@XXo@ooXo@@@",
"X@@@@###XXXXX%%&&&&&&&&%@@@@@XXXoXXooo@@",
"X@@@@@@@#X@@@%%&&&&&&&&%@@@@@XXXX@@XXXoo",
"X@@@@@@@#X@@@%%&&&&&&&&%@@@@@XXXX@@XXXoo",
"XXX@@@@@@Xoo@%%... ....%@@@@oXX#XXX###XX",
"#XX@@@@@@XXXo%%... ....%ooooXXX@#XX@@@##",
"#XXo@@@@@@ooXXX........oXXXX###@@XX@@@@@",
"@##Xoo@@@oXX###..@#X...XXX##@@@@@XX@@@@@",
"@##Xoo@@@oXX###..@#X...XXX##@@@@@XX@@@@@",
"@@@#XXoooXXX@@@..@@#...#XX#@@@@@@XXXX@@@",
"@@@@#XXXX#XXX@@..@@@...oXX@@@@@@oXX##X@@",
"@@@@X####@##Xoo..@@@...XXX@@@@@oXXX#@#XX",
"@@@@X@@@@@@@@XX..ooo...X@@@@@ooXX##@@@##",
"@@@@X@@@@@@@@XX..ooo...X@@@@@ooXX##@@@##",
"XXXXXXoo@@@@@@X..XXX...@@@@@oXXX#@@@@oXX",
"#####XXXoo@@@oo..XX#...oooooXXX#@@@@oX##",
"@@@@@#XXXXoooXX..X#@...XXXXXX##@@@@oX#@@",
"@@@@@@###XXXXX@++X@@+++XXX@@@@@@@ooX#@@@",
"@@@@@@###XXXXX@@@X@@@@@XXX@@@@@@@ooX#@@@",
"@@@@X@@@@@@@@@@@@X@@@@@@XXX@@@@@@XX@@@@@"
};
