/* XPM */
static char *_2c3263decb74aa7a51debbf74e19980k6ypxWXdl0vXlEeg[] = {
/* columns rows colors chars-per-pixel */
"40 40 133 2 ",
"   c #040303",
".  c #0B0302",
"X  c #0C0807",
"o  c #0C0B0A",
"O  c #120301",
"+  c #1C0301",
"@  c #160907",
"#  c #120E0D",
"$  c #10100F",
"%  c #141414",
"&  c #181717",
"*  c #1C1B1B",
"=  c #270402",
"-  c #230C0A",
";  c #2C0D0A",
":  c #340502",
">  c #3B0602",
",  c #310F0C",
"<  c #33110D",
"1  c #201F1F",
"2  c #381612",
"3  c #252525",
"4  c #282727",
"5  c #2B2B2B",
"6  c #353535",
"7  c #3B3B3B",
"8  c #480501",
"9  c #540903",
"0  c #54140F",
"q  c #4C1813",
"w  c #5F1610",
"e  c #581B15",
"r  c #660501",
"t  c #6B0501",
"y  c #630B04",
"u  c #740301",
"i  c #790401",
"p  c #730B03",
"a  c #7B0B02",
"s  c #681B13",
"d  c #73241C",
"f  c #424242",
"g  c #4B4B4B",
"h  c #535353",
"j  c #585858",
"k  c #830101",
"l  c #8A0101",
"z  c #840C03",
"x  c #8C0C02",
"c  c #940201",
"v  c #9C0101",
"b  c #940C02",
"n  c #9C0D02",
"m  c #84150C",
"M  c #9E1106",
"N  c #851C13",
"B  c #A50201",
"V  c #AC0100",
"C  c #A10E03",
"Z  c #AC0F03",
"A  c #B40000",
"S  c #BB0000",
"D  c #B30B02",
"F  c #BD0D02",
"G  c #A11105",
"H  c #A51409",
"J  c #AD1B0E",
"K  c #B41206",
"L  c #B91105",
"P  c #B61508",
"I  c #BA1609",
"U  c #A31C10",
"Y  c #AE1E11",
"T  c #B21E11",
"R  c #8C291F",
"E  c #90291F",
"W  c #A02216",
"Q  c #AD2C1F",
"!  c #B72316",
"~  c #BB2014",
"^  c #842E23",
"/  c #8D2A20",
"(  c #952B21",
")  c #C30000",
"_  c #CB0000",
"`  c #CD0000",
"'  c #C00E02",
"]  c #C60C00",
"[  c #CC0E04",
"{  c #D20000",
"}  c #D40000",
"|  c #DB0000",
" . c #DF0001",
".. c #D10B01",
"X. c #D70B01",
"o. c #D30F02",
"O. c #D50F01",
"+. c #C31709",
"@. c #CD1608",
"#. c #C31A0D",
"$. c #C41B0D",
"%. c #CB1C0F",
"&. c #D01406",
"*. c #D51607",
"=. c #D41909",
"-. c #D01B0E",
";. c #DA1809",
":. c #DB1D0F",
">. c #DC1E0E",
",. c #C11D10",
"<. c #D11F10",
"1. c #E20000",
"2. c #E90000",
"3. c #E11001",
"4. c #E11908",
"5. c #E41B0C",
"6. c #C72214",
"7. c #C62315",
"8. c #CB2112",
"9. c #CD2113",
"0. c #CD2214",
"q. c #CD2617",
"w. c #C32719",
"e. c #C72D1F",
"r. c #D22112",
"t. c #D12717",
"y. c #DF2313",
"u. c #D62919",
"i. c #E22010",
"p. c #E52313",
"a. c #EA2111",
"s. c #E82D1C",
"d. c #CB2E20",
/* pixels */
"f f f f f f 7 6 6 6 6 6 6 6 7 f f f 7 6 6 6 6 6 6 6 6 6 6 6 6 6 f f f f f f f f ",
"f f f f f 7 6 6 6 6 6 6 6 6 6 7 3 & & & & 3 5 5 5 6 6 h h h g 6 7 7 f f f f f f ",
"f f f f f 7 6 6 g g g g g g f 5   ^ ( E R R R / / d   6 g g g g 6 7 7 f f f f f ",
"7 7 7 7 7 6 7 f g g g g g g g % e $.n C n C C C Z &.9 o 7 f g g f 7 6 7 f f f f ",
"6 6 6 6 6 6 7 h 7 f f f f f 5 @ e.z Z b x x x b ] L @.. 3 f f f h 7 6 6 7 f f f ",
"6 6 6 6 6 6 6 7 6 6 6 6 f 7 o ( G n r l c l u u u ..I z   7 f f f 7 6 6 6 6 6 6 ",
"h h h h 6 6 6 6 6 6 6 6 7 & 2 q.x t k S ) A V V v b [ 4.= & f f f 7 6 6 6 6 6 6 ",
"g g g f 6 6 6 6 g g f 6 4 . d.x x l S V V A _ ` A i D P L   4 7 7 6 7 g g g g g ",
"f 7 7 6 6 7 7 7 h h g 7 o d H b u A _ V B S } } S v u o.;.9 o 6 6 6 7 g g g h h ",
"7 7 6 6 6 g j j f f g 6 - 6.b p l S A V S V ) ) V S c b L *.O 3 6 6 6 6 6 7 f f ",
"6 6 6 6 j g f f f f 7   Q x x k v B V _ } ) V V ) | _ i O.-.x 6 j j j j 6 6 7 f ",
"6 6 7 g g f f f f f f X s.x i B A B V ` } ) V V ) | } c D 9.L 4 g g g g g 7 6 7 ",
"g 6 f j f f f f f f f $ ! x u c A ) A A S A ) ) A ) S V Z 0.b 3 f f f f g g f 6 ",
"j 7 7 g f f f f f f f * N x a l ) | ` V B S | | ) V A A F r.y 3 f f f f f g g 6 ",
"j 7 6 6 f f f f f f f 4 0 M x u ) { ) V V A { } S A A v ' i.: 4 f f f f f f 7 6 ",
"j 7 6 6 6 7 f f f f f 6 ; +.b u V A V ) ` S A A S { _ k K i.O 4 f f f f f 7 6 6 ",
"j 7 7 g 6 7 f f f f f 7 @ :.b i A V A {  .` V V ` 1.| k T +.  6 f f f f f 7 7 g ",
"g 6 7 g 6 7 f f f f g f X 6.b i v A A ) { S A A S } _ z w.x o 6 f f f f f 7 7 g ",
"6 6 7 f 6 7 7 7 f f f f & W b a B } _ V A A } } S A B n t.y & 6 f f f f 7 6 6 7 ",
"6 6 7 f 6 6 6 6 f f f f 3 s M z B  .{ A V )  .1.) A v Z y.> * 6 f f f f 6 6 6 6 ",
"6 g g f f 6 6 6 7 7 7 7 4 < +.a k _ S S ) A _ _ S ) c +.5.O 4 6 6 7 7 7 6 6 7 f ",
"6 f g f f g g g 6 6 6 6 5 @ >.z t V A }  ._ A A ` 1.B #.I   6 6 6 7 7 6 6 6 6 7 ",
"6 7 f f f g g g 7 6 6 7 6 X <.b r V A } 1.` A A ` 1.v ~ b   7 6 6 6 6 7 6 6 6 6 ",
"6 7 7 f f f f f h 7 6 7 f % Y n i S ) S ) S ` ` S ) b w.y % 7 6 7 6 6 7 7 7 7 7 ",
"6 6 7 f f f f f f 7 6 6 f 1 N C x ) | A A ) 1.1._ B x u.> * 6 6 j f 6 6 j j j j ",
"h 7 7 f f f f f f 6 6 6 7 3 q K x V { A S S  . .S v H p.+ 3 6 6 f g g 6 f g g g ",
"j 7 6 7 f f f f f 7 7 6 6 5 @ %.a l A ` | ) S S ) B #.=.. 6 g g f g f 6 f f f f ",
"g g 7 6 7 7 7 f f f 7 6 f 7 o 8.a t S  .2.} A A } B %.L   g g g f f 7 6 7 f f f ",
"f g g 6 6 6 7 g 7 7 6 6 j j & T z t A ` | ) S ) ) B ,.z % g f f f f 7 6 7 7 7 f ",
"f f g h 6 6 6 g 7 6 6 6 f f * N n a ) A S ) 1.1.) C ~ 9 * f f f f f 7 6 6 6 6 f ",
"f f f g g 7 6 6 6 g g 6 6 7 3 w Z x S S A _ 2.2.) C 6.= 4 f f f f 7 6 6 g g g 6 ",
"f f f f f g g g g g g g 6 7 6 , P n c ) ` S ` { v Z 8.. 6 f f f 7 6 6 6 j g g g ",
"f f f f 6 g h h h g g g 6 6 6 X #.n l 1.2.} S S c I $.. 7 f f 7 6 6 6 7 h g g h ",
"f f f f 6 7 f f f f f f f 6 6 o U n i | 2.} S S l $.G o f f 7 6 6 6 7 j f f f f ",
"6 6 6 6 6 6 6 6 f f f f f f 7 & m b i c B v V V b %.a & f 7 6 6 6 g h f f f 7 6 ",
"g g g g g 7 6 6 7 7 7 f f 7 7 * y b X.D D D D D 3.$.8 3 7 6 6 6 g g g f f 7 7 6 ",
"g g g g g g 7 6 6 6 6 7 7 6 6 4 > 5.J J J Y J J T a.+ 4 6 6 7 f g g f f 7 6 7 f ",
"f f f f f g g 7 7 6 6 6 6 6 6 6 O z a p p p p p p p   6 6 6 7 h f f f 7 6 7 f h ",
"f f f f f f g j j 7 6 6 6 6 7 f % o o o o # # o o % & 7 f f f f f f 7 6 6 g h f ",
"f f f f 6 7 f g g f f f f f f f f 6 7 h h h h g f 6 6 6 f f f f f f 7 6 7 f f f "
};
