/* XPM */
static char *_295396be4ca41cf842be1c9e480e2134jJAzobf8zyF0gxA[] = {
/* columns rows colors chars-per-pixel */
"40 40 216 2 ",
"   c #040403",
".  c #0B0504",
"X  c #0F0805",
"o  c #0C0C0B",
"O  c #170703",
"+  c #130C0A",
"@  c #141414",
"#  c #1B1B1B",
"$  c #230602",
"%  c #250903",
"&  c #2B0B03",
"*  c #2A0E0B",
"=  c #390502",
"-  c #350A04",
";  c #3B1A11",
":  c #232323",
">  c #2C2C2C",
",  c #353535",
"<  c #3B3B3B",
"1  c #470804",
"2  c #5E0907",
"3  c #4E1506",
"4  c #54150B",
"5  c #4B1914",
"6  c #5A1A14",
"7  c #6D0503",
"8  c #640905",
"9  c #740402",
"0  c #7B0302",
"q  c #740903",
"w  c #7D0B04",
"e  c #7A0B09",
"r  c #69160C",
"t  c #771F07",
"y  c #611B14",
"u  c #661E18",
"i  c #711A13",
"p  c #472410",
"a  c #6F2209",
"s  c #672914",
"d  c #632C1B",
"f  c #642D27",
"g  c #693526",
"h  c #763A26",
"j  c #7F401D",
"k  c #63432F",
"l  c #7D4327",
"z  c #644431",
"x  c #6B4B38",
"c  c #7B4936",
"v  c #424242",
"b  c #4B4B4B",
"n  c #535353",
"m  c #5B5B5B",
"M  c #7C4C45",
"N  c #735642",
"B  c #666666",
"V  c #787878",
"C  c #830402",
"Z  c #8B0201",
"A  c #830B03",
"S  c #8E0F04",
"D  c #930302",
"F  c #9C0101",
"G  c #930E03",
"H  c #9B0E03",
"J  c #87120A",
"K  c #8D1209",
"L  c #951308",
"P  c #911C12",
"I  c #A40202",
"U  c #AB0102",
"Y  c #A90E00",
"T  c #B50102",
"R  c #BC0101",
"E  c #AB1105",
"W  c #A11509",
"Q  c #A6140A",
"!  c #8C2908",
"~  c #912506",
"^  c #952E0C",
"/  c #91320D",
"(  c #9B320C",
")  c #873918",
"_  c #983913",
"`  c #A3370E",
"'  c #BB271B",
"]  c #A83B10",
"[  c #882A21",
"{  c #A42C21",
"}  c #C40001",
"|  c #CC0000",
" . c #D20000",
".. c #D90000",
"X. c #C9150A",
"o. c #C3180C",
"O. c #D31404",
"+. c #D41C0E",
"@. c #C51D13",
"#. c #D31E11",
"$. c #E80000",
"%. c #E51A09",
"&. c #C92417",
"*. c #D92213",
"=. c #E52311",
"-. c #CE3526",
";. c #E33324",
":. c #9B461A",
">. c #A94617",
",. c #B24514",
"<. c #B94C16",
"1. c #BA4D17",
"2. c #AB5611",
"3. c #B9511D",
"4. c #AE631F",
"5. c #874A29",
"6. c #964E26",
"7. c #99542D",
"8. c #834D32",
"9. c #895639",
"0. c #9C5C35",
"q. c #9C5D3B",
"w. c #AC5627",
"e. c #BB5822",
"r. c #A45E32",
"t. c #9C633E",
"y. c #BA642E",
"u. c #B9782B",
"i. c #A76237",
"p. c #AE6B3B",
"a. c #B26936",
"s. c #CB5C1F",
"d. c #D35E1F",
"f. c #C75C22",
"g. c #D15E22",
"h. c #C76428",
"j. c #D56223",
"k. c #D96625",
"l. c #DB6827",
"z. c #D46629",
"x. c #DD6B29",
"c. c #D0762E",
"v. c #C66E38",
"b. c #D46E31",
"n. c #CA763B",
"m. c #D57334",
"M. c #D6763A",
"N. c #E1702E",
"B. c #E37736",
"V. c #844C44",
"C. c #8C4C45",
"Z. c #974D46",
"A. c #885B43",
"S. c #A9544C",
"D. c #9C6949",
"F. c #9A6857",
"G. c #A76A41",
"H. c #AA6F4D",
"J. c #AB7349",
"K. c #B57647",
"L. c #B57C4E",
"P. c #AD7A58",
"I. c #B27954",
"U. c #8D6C65",
"Y. c #9F6963",
"T. c #A26E66",
"R. c #C27648",
"E. c #D67D42",
"W. c #C6862E",
"Q. c #DA942D",
"!. c #DA8C3F",
"~. c #B9885A",
"^. c #CA8447",
"/. c #D48347",
"(. c #DA8547",
"). c #D99C4D",
"_. c #C68B59",
"`. c #D78E52",
"'. c #DA9357",
"]. c #D49359",
"[. c #E28442",
"{. c #E58C49",
"}. c #EA9249",
"|. c #EC964E",
" X c #EA9555",
".X c #ED9A56",
"XX c #E59658",
"oX c #EC9B5C",
"OX c #F19E5A",
"+X c #E8AD4C",
"@X c #EEA35B",
"#X c #F1A25D",
"$X c #C9936A",
"%X c #C9976A",
"&X c #CD9D6B",
"*X c #D89E69",
"=X c #E19D63",
"-X c #EB9D60",
";X c #CEA16B",
":X c #D0A273",
">X c #EEA263",
",X c #EEA964",
"<X c #E7A46D",
"1X c #EEA96C",
"2X c #F1A464",
"3X c #F0A769",
"4X c #F2AB6D",
"5X c #F2B06C",
"6X c #EDAA71",
"7X c #E7AF79",
"8X c #F1AD73",
"9X c #EDB579",
"0X c #F2B274",
"qX c #F3B479",
"wX c #AB8682",
"eX c #E7BA85",
/* pixels */
"v v v v v v < , , , , , , , < v v v < , , , , , , , , , , , , , v v v v v v v v ",
"v v v v v < , , , , , , , , , < < < , , , b n n n n n n n n b , < < v v v v v v ",
"v v v v v < , , b b b b b b v , , , , , b b b b b b b b b b b b , < < v v v v v ",
"< < < < < , < v b b b , > > : # # # # # > : : : # : : > v v b b v < , < v v v v ",
", , , , , , < n < v ,   5 y y y y y ; k x z z k z N N + , v v v n < , , < v v v ",
", , , , , , , < , , @ * ;.W W W W K ~.].0X5X5X,X,X0X'.5.@ v v v v < , , , , , , ",
"n n n n , , , , , :   { L Y H G G g 1X_.@X#X#X@X@X#XK.[.p : v v v < , , , , , , ",
"b b b v , , , , b o 5 &.G q 0 Z 2 &X@XL.p.I.P.P.I.K.a.}.y.+ , < < , < b b b b b ",
"v < < , , < < < ,   &.G K e U U A.,X,Xt.|.#XOXOX.X.Xp.!.[.j o , , , < b b b n n ",
"< < , , , b m b   [ Q L e U U s 9X@XF./.OX#XOXOXOXOXoX0.{.m.; # , , , , , < v v ",
", , , , m b v # * &.L e I | 0 ~.5X%XJ.oX.XOXoXOX2X3X1X_.a.[.w.X b m m m , , < v ",
", , < b b v ,   ' K J 9 U U 9.4X1XA..XoX#X#X].].4X8X6X1X0.m.m.s @ b b b b < , < ",
"b , v m v v # 6 o.W 0 F I r _.`.J.`..X2X#XoX;XW.8X6X6X6X=X6.h.w.% : v v b b v , ",
"m < < b v v @ [ W G C T U 8 (.(.i.2X.X'.].].;XW.*X*X*X6X1Xi.e.3.& > v v v b b , ",
"m < , , < v # 4 Q H 9 U } w n.|.K.2X2X^.Q.Q.+X+X).!.p.-X Xq.h.>.O , v v v v < , ",
"m < , , , < > * X.H 8 T  .I r.@XL.XX4X6X=X<X:X^.'.'.XX[.x.5.h./ X v v v v < , , ",
"m < < b , < , . *.G 9 I } T 5.0X~.^.0XqX1X>X&Xc.-X XB.l.M.h s.a @ v v v v < < b ",
"b , < b , < v   ' G C I U I h 9X:XG.0X4XoX>X&Xu. XN.N.k.K.) 1.3 : v v v v < < b ",
", , < v , < < @ P G A F U U 4 7XeX8.>X>XoX-X&Xu.B.x.x.l.q.>.,.& > v v v < , , < ",
", , < v , , , # 4 Q A Z } } 2 %XqXl XX-XoX-X%X4.l.l.x.l.8.3.] O , v v v , , , , ",
", b V v v , , : % +.A 0 ....C r.#X9.{.-XoXoX_.2.k.k.x.l.8.f./ . , < < < , , < v ",
", v V v v b b v X %.S 7  . .F 5.#XD./.-X-X{.y.:.l.k.k.z.c f.a o , < < , , , , < ",
", < B v v b b b   &.L 9 I T R s .XL.R.oX XB.x.l.k.k.j.(.l 3.3 # , , , < , , , , ",
", < v v v v v v # P W A D U | r {.].i. XB.N.x.k.k.j.j._.) ,.- : < , , < < < < < ",
", , < v v v v v : u E A F R R 7 /.=X7.[.x.x.x.j.j.j.z.H._ ` O > m v , , m m m m ",
"n < < v v v v v , * o.A I ..T q p.1X5.l.x.l.k.j.d.z.g.V.>.! . , v b b , v b b b ",
"m < , < v v v v <   *.q Z ..R D 5.,X8.j.x.k.k.j.g.z.j.c ,.a @ b v b v , < v v v ",
"b b < , < < < v v o @.A 7 T R } s |.9.f.k.k.j.z.g.d.b.h ,.3 : b v v < , < v v v ",
"v b b , , , < v v @ P H q U  .$.r }.J.e.j.d.d.g.g.z.v.h ] - > v v v < , < v < v ",
"v v b n , , , < < # i E J I } ..w (.].:.j.j.d.g.z.m.R.) ( O < v v v < , , , , v ",
"v v v b b < , , , , 1 X.K U R R w v.2X:.j.j.g.z.b.b.I./ ! + v v v < , , b b b , ",
"v v v v v b b b b b $ =.V.V.Z.C.V.G.}.7.j.g.j.b.b.m.D.( t @ v v < , , , m n b b ",
"v v v v , b n n n b o %.T.wX$XF.C.A. X0.g.j.b.b.m.m.A.` 4 : v < , , , < n b b n ",
"v v v v , < v v v v @ Y S.U.Y.S.Z.c  Xr.f.b.m.b.m.M.c ] - > < , , , < m v v v v ",
", , , , , , , , v v : q -.U.Y.S.Z.g (.p.h.M.E.E.M./.h ( $ , , , , b n v v v < , ",
"b b b b b < , , < < > 1 =.V.M M M f n.a.d g d d d g t ~ + , , , b b b v v < < , ",
"b b b b b b < , , , , $ %.o.X.@.X.E a.>.3.1.1.,.1.1._ t @ , < v b b v v < , < v ",
"v v v v v b b < < , , o O.#.&.#.+.@.) ^ ( ( ( ^ ( ^ ^ 3 # , < n v v v < , < v n ",
"v v v v v v b m m < , @ - 1 = = = = $ & % % % % % % % O > v v v v b < , , b n v ",
"v v v v b < b m b v v < , , , , , > > < < < , , < < n v v v v b B B b < v v v v "
};
