/* XPM */
static char *_c387f896486431280060a0c9e3c0843[] = {
/* columns rows colors chars-per-pixel */
"40 40 4 1 ",
"  c #313131",
". c #353535",
"X c gray25",
"o c gray34",
/* pixels */
"XXXXXX.  .....XXX..          .XXXXXXXXXX",
"XXXXX.        ...   ooooooooo .XXXXXXXXX",
"XXXXX. ooooooo     oXXXXXXXXXo .XXXXXXXX",
"XXXXX. ooooooo     oXXXXXXXXXo .XXXXXXXX",
"..... oXXXXXXXoo.  .....XXXXXXo ..XXX...",
"      .....XXXX.        .XXXXXX .....   ",
"oooo.      .XX.  ooooo   .XXXXX        o",
"XX..   ooo  .. ooXXXXXoo  ..... oooooooX",
"XX..   ooo  .. ooXXXXXoo  ..... oooooooX",
"X.   ooXXXo   oXXXXXXXXXo         .XXXXX",
".   oXXXXXXo   XXXXXXXXXX oooooooo .XXXX",
"  ooXXXXXXXXoo ....XXXXXX oXXXXXXXo .XXX",
"o ooXXXXXXXXXX     .XXXXX  ooXXXXXXo ...",
"o ooXXXXXXXXXX     .XXXXX  ooXXXXXXo ...",
"o   XXXXXXXXXX oo   .XXXX  ooXXXXXXX    ",
"o.   XXXXXXXXX XXooo .XXX o  .XXXXX  ooX",
"o oo XXXXXXXXX XXXXo  ... o   XXXXX oXXX",
". XX XXXXXXX.. XXXXXo    oXoo XXXXX XXXX",
". XX XXXXXXX.. XXXXXo    oXoo XXXXX XXXX",
"  XX ..XXXXX   XXXXXX   oXXXX XXXX. .XXX",
" oXXX  .....  XXXXXXX ooXXXXX .X.. .XXXo",
" XXXXoo       XXXXXX. ooXXXXX  .  ...XXo",
" XXXXXXoo XXXXXXXXX.  ooXXXXX   XX   ...",
" XXXXXXoo XXXXXXXXX.  ooXXXXX   XX   ...",
"  XXXXXXX .XXXX....  oXXXXX.. o   ooo   ",
"o XXXXXXX  ....     oXXX...   Xo  XXXoo ",
"o ..XXXXXX.    oooo ....   oooXX  XXXXXo",
"Xo  ..XXX. ooooXXoo      ooXXXXX  XXXXXX",
"Xo  ..XXX. ooooXXoo      ooXXXXX  XXXXXX",
"XXoo  ...  XXXXXXXXooooo oXXXXXX    XXXX",
"XXXXo    o  XXXXXXXXXX.. XXXXXX.  oo XXX",
"XXXX ooooXo ...XXXXXX.   XXXXX.   oXo  X",
"XXXX XXXXXXX   ......   XXXXX.  ooXXXoo ",
"XXXX XXXXXXX   ......   XXXXX.  ooXXXoo ",
"      .XXXXXXX        XXXXX..  oXXXX.  o",
"ooooo  ...XX...    o  .....   oXXXX. ooX",
"XXXXXo    ..     ooXo        oXXXX. oXXX",
"XXXXXXooo     XX XXXXX   XXXXXXX.. oXXXX",
"XXXXXXooo     XX XXXXX   XXXXXXX.. oXXXX",
"XXXX XXXXXXXXXXX XXXXXXX  XXXXXX  XXXXXX"
};
