/* XPM */
static char *_2f584c62d35443da8aa3d7dd1739baf5lAQzxvjkICmznQw[] = {
/* columns rows colors chars-per-pixel */
"40 40 11 1 ",
"  c #020015",
". c #261A3D",
"X c #313131",
"o c #353535",
"O c #362957",
"+ c gray25",
"@ c gray34",
"# c #FA0000",
"$ c #E1AF84",
"% c #939DC2",
"& c #FDFEFF",
/* pixels */
"++++++ooXooooo+....      XXXXo++++++++++",
"+++++oXXXXXXXXo....      @@@@Xo+++++++++",
"+++++oXXXXXXXX.OOOOO        @Xo+++++++++",
"+++++oXX@@@@..OOOOO.OO...     Xoo+++++++",
"oooooX@@++++..OOOOO.OO...     @XXo++++oo",
"XXXXXXooooo.   ....             XoooooXX",
"@@@@oXXXXXX   O..   $$   $$$    XXXXXXX@",
"@@@@oXXXXXX   O..   $$   $$$    XXXXXXX@",
"+++oXXXX@@X ...    $&&  $&&&$$  X@@@@@@+",
"+ooXX@@@++@      &&&&&&&&&&&&&  XXo+++++",
"oXXX@++++++      &&&&&&&&&&&&&  @@Xo++++",
"XXX@+++++++$$$ $$&& &&&&&&& &&$$++@Xoo++",
"XXX@+++++++$&& $$&& &&&&&&& &&$$++@Xoo++",
"@XX@+++++++$&& $$&& &&&&&&& &&$$+++@XXoo",
"@XXX+++++++$&&$$$&&&&&&&&&&&&&$$++++XXXX",
"@ooXX++++  $$$$$$&&&&&   &&&$$$$ ++XXX@+",
"@XX@X++++  $$$$$$&&&&&   &&&$$$$ ++X@@++",
"@XX@X++        ##$$&&&&&&&&&##     X@@++",
"oXX+X++++++++o   ##$$$$$$$$#    +++X++++",
"XXX+Xooo+++++X   ##$$$$$$$$#    ++oXoo++",
"X@@++XXXoooooX+    %%%%%%   +Xo++oXo+++@",
"X++++@@@XXXXXX+    %%%%%%   +XXooXoooo+@",
"X++++@@@XXXXXX .... &&%%&   +XXooXoooo+@",
"X+++++++@X++  ...  %&&%%&%%   XXX+XXXXoo",
"XXX++++++Xo+  ...  %&&%%&%%   @XXX@@@@XX",
"@XX++++++XXo  ...  %&&%%&%%   +@@X++++@X",
"@XXo++++++o   ...  %&&&&&%% ..  +X+++++@",
"@XXo++++++o   ...  %&&&&&%% ..  +X+++++@",
"+@@Xoo+++oX   ...  %%%%%%%% ..  +X++++++",
"+++@XXoooXX ..&&&           &&  +XXX++++",
"++++@XXXX@X ..&&&           &&  oX@@XX++",
"++++X@@@@+@ ..$$$           $$  XX@+@@X+",
"++++X@@@@  .###     ####   ###.. X@+@@X+",
"++++X++++  .###     ####   ###.. @++++@X",
"XXXXXXoo+  .###     ####   ###.. +++ooX@",
"@@@@@XX  ...###    #####   ###.. ++oXX@+",
"+++++@X  ...###    #####   ###.. +oX@@++",
"+++++@ ....####    #####   ###...  X@@++",
"+     .....XXX     ++++X    ++++...   ++",
"+     .....+++     +++++    ++++...   ++"
};
